<svg xmlns="http://www.w3.org/2000/svg" width="25.334" height="24.897" viewBox="0 0 25.334 24.897">
  <g id="Icon_-_Facebook" data-name="Icon - Facebook" transform="translate(0 0)">
    <path id="パス_782" data-name="パス 782" d="M23660.85,18723.391h0a12.666,12.666,0,0,1-8.061-4.031,12.341,12.341,0,0,1-3.285-8.383,12.668,12.668,0,0,1,25.334,0,12.356,12.356,0,0,1-3.117,8.2,12.675,12.675,0,0,1-7.705,4.154v-7.93h3.432v-3.115h-3.432v-.258c0-3.533,1.105-4.162,4.223-4.162v-3.123l-.01,0c-3.436,0-7.375.826-7.375,7.281v.258h-3.434v3.115h3.434v7.992Z" transform="translate(-23649.5 -18698.494)" fill="#fff"/>
  </g>
</svg>
