<svg id="Icon_-_Instagram" data-name="Icon - Instagram" xmlns="http://www.w3.org/2000/svg" width="24.945" height="24.945" viewBox="0 0 24.945 24.945">
  <g id="グループ_1486" data-name="グループ 1486">
    <path id="パス_784" data-name="パス 784" d="M-100.2,186.834a4.426,4.426,0,0,1,4.421,4.422V201.34a4.426,4.426,0,0,1-4.421,4.421h-10.084a4.426,4.426,0,0,1-4.422-4.421V191.256a4.427,4.427,0,0,1,4.422-4.422H-100.2m0-3.009h-10.084a7.452,7.452,0,0,0-7.43,7.43V201.34a7.452,7.452,0,0,0,7.43,7.43H-100.2a7.452,7.452,0,0,0,7.43-7.43V191.256a7.452,7.452,0,0,0-7.43-7.43Z" transform="translate(117.715 -183.825)" fill="#fff"/>
    <path id="パス_785" data-name="パス 785" d="M-83.123,191.825a1.592,1.592,0,0,0-1.592,1.592,1.592,1.592,0,0,0,1.592,1.592,1.592,1.592,0,0,0,1.592-1.592,1.592,1.592,0,0,0-1.592-1.592Z" transform="translate(102.23 -187.579)" fill="#fff"/>
    <g id="グループ_1485" data-name="グループ 1485" transform="translate(5.838 5.838)">
      <path id="パス_786" data-name="パス 786" d="M-100.081,197.834a3.629,3.629,0,0,1,3.625,3.626,3.629,3.629,0,0,1-3.625,3.625,3.629,3.629,0,0,1-3.626-3.625,3.629,3.629,0,0,1,3.626-3.626m0-3.009a6.634,6.634,0,0,0-6.634,6.634,6.634,6.634,0,0,0,6.634,6.634,6.635,6.635,0,0,0,6.634-6.634,6.634,6.634,0,0,0-6.634-6.634Z" transform="translate(106.715 -194.825)" fill="#fff"/>
    </g>
  </g>
</svg>
