<svg id="Icon_-_Twitter" data-name="Icon - Twitter" xmlns="http://www.w3.org/2000/svg" width="28.229" height="23.12" viewBox="0 0 28.229 23.12">
  <path id="パス_779" data-name="パス 779" d="M1820.143,920.124a5.717,5.717,0,0,1,3.7-6.64c2.9-1.312,5.85,1.5,5.85,1.5l3.529-1.409c0,1.512-2.521,3.025-2.521,3.025a12.31,12.31,0,0,0,3.529-.5c0,.5-3.024,3.025-3.024,3.025,0,12.1-9.074,17.139-16.635,17.139s-8.57-3.024-8.57-3.024c6.049,0,8.065-2.52,8.065-2.52-1.512,1.008-5.041-3.529-5.041-3.529a5.777,5.777,0,0,0,3.024,0c-3.024-.5-5.041-6.049-5.041-6.049.5,1.008,3.024,1.008,3.024,1.008-4.033-4.033-2.017-8.065-2.017-8.065C1811.041,919.116,1820.143,920.124,1820.143,920.124Z" transform="translate(-1806 -913.135)" fill="#fff"/>
</svg>
